<?xml version="1.0" standalone="no"?>
<!DOCTYPE svg PUBLIC "-//W3C//DTD SVG 20010904//EN"
 "http://www.w3.org/TR/2001/REC-SVG-20010904/DTD/svg10.dtd">
<svg version="1.0" xmlns="http://www.w3.org/2000/svg"
 width="157.000000pt" height="179.000000pt" viewBox="0 0 157.000000 179.000000"
 preserveAspectRatio="xMidYMid meet">

<g transform="translate(0.000000,179.000000) scale(0.100000,-0.100000)"
fill="#000000" stroke="none">
<path d="M917 1663 c-3 -4 -118 -233 -257 -507 l-253 -499 23 -43 c23 -41 23
-43 6 -78 -15 -32 -16 -54 -10 -166 4 -85 11 -134 19 -140 15 -13 157 -25 450
-40 116 -5 233 -12 260 -15 140 -12 231 -14 245 -6 12 8 15 38 15 161 0 140
-2 153 -20 166 -20 15 -20 15 4 77 13 34 25 71 28 82 3 13 -46 120 -133 290
-75 149 -188 371 -251 494 -62 124 -115 226 -117 229 -2 2 -6 0 -9 -5z m64
-123 c5 0 9 -6 9 -14 0 -7 12 -35 26 -62 90 -168 394 -784 394 -798 0 -12 -6
-16 -17 -13 -10 3 -36 8 -58 12 -96 15 -99 17 -130 113 -15 48 -38 116 -50
152 -12 36 -48 146 -80 245 -89 281 -114 352 -114 328 -1 -21 102 -352 118
-383 5 -9 12 -31 16 -50 4 -19 11 -41 15 -50 5 -8 27 -76 50 -150 23 -74 46
-142 51 -151 11 -23 2 -29 -40 -29 -65 0 -256 24 -262 33 -3 5 -5 18 -4 30 1
12 5 164 9 337 7 335 14 443 26 435 4 -3 11 7 16 23 5 20 8 23 11 10 3 -10 9
-18 14 -18z m-75 -199 c-3 -97 -10 -274 -14 -394 -5 -119 -12 -221 -18 -226
-5 -5 -60 -6 -121 -3 -120 5 -123 7 -104 54 5 13 57 172 116 353 59 182 111
338 116 347 5 10 9 27 9 38 0 13 4 19 11 14 8 -5 10 -56 5 -183z m-41 143 c-3
-20 -10 -44 -15 -53 -5 -9 -59 -171 -122 -361 l-113 -345 -77 -16 c-43 -9 -79
-14 -82 -12 -5 6 403 823 411 823 3 0 2 -16 -2 -36z m-245 -814 c4 -14 10 -47
14 -73 l7 -47 -73 0 c-40 0 -78 4 -84 8 -19 12 -56 94 -47 102 9 10 141 39
162 37 8 -1 18 -13 21 -27z m256 19 c2 -5 7 -37 11 -72 4 -48 2 -66 -8 -73
-12 -7 -146 -7 -196 0 -9 2 -21 16 -25 32 -16 55 -25 113 -19 119 8 9 231 3
237 -6z m312 -15 c22 -4 23 -8 17 -62 -12 -104 2 -96 -153 -88 -87 5 -139 12
-144 19 -9 15 -10 109 -2 132 6 14 21 16 133 10 69 -3 136 -8 149 -11z m195
-65 c-1 -13 -9 -41 -17 -61 l-16 -38 -65 0 c-35 0 -67 4 -70 10 -8 13 15 133
27 141 5 3 40 -2 76 -11 60 -16 67 -21 65 -41z m-665 -172 c6 -6 13 -24 17
-40 9 -36 19 -34 30 6 8 27 16 33 43 35 l33 3 -3 -93 c-2 -75 -6 -93 -18 -93
-10 0 -16 12 -18 33 -4 40 -18 42 -25 2 -5 -21 -12 -30 -27 -30 -11 0 -20 1
-20 3 0 1 -7 20 -15 42 l-14 40 -1 -36 c0 -36 -13 -50 -37 -42 -14 5 -19 136
-7 167 7 19 47 21 62 3z m310 -23 c25 -17 29 -44 7 -44 -8 0 -15 -4 -15 -9 0
-5 7 -11 15 -15 20 -7 20 -70 -1 -87 -23 -19 -96 -14 -111 7 -30 41 5 78 37
39 7 -8 19 -15 27 -15 21 0 10 24 -12 29 -57 11 -83 61 -49 95 20 20 73 20
102 0z m223 -25 c11 -15 19 -41 19 -67 0 -58 -33 -92 -89 -92 -56 0 -67 15
-65 91 3 111 -3 102 60 97 45 -4 60 -10 75 -29z"/>
<path d="M970 380 c0 -5 7 -10 16 -10 8 0 12 5 9 10 -3 6 -10 10 -16 10 -5 0
-9 -4 -9 -10z"/>
<path d="M1178 363 c-1 -4 -3 -24 -3 -43 0 -24 5 -35 15 -35 11 0 15 11 15 39
0 35 -17 60 -27 39z"/>
</g>
</svg>
